<svg width="144" height="107" viewBox="0 0 144 107" fill="none" xmlns="http://www.w3.org/2000/svg">
<path d="M91.0822 87.9631H48.9215C45.6025 87.9631 42.2386 85.6002 41.1173 82.524L22.5487 30.8518C20.2612 24.3426 21.9208 21.3556 23.7148 20.0181C25.5089 18.6806 28.8728 17.8781 34.5241 21.8906L52.0163 34.3293C52.5545 34.6414 53.0479 34.7751 53.4067 34.686C53.8104 34.5522 54.1244 34.1956 54.3486 33.5714L62.2425 12.6618C64.6196 6.42014 68.118 5.48389 70.0018 5.48389C71.8856 5.48389 75.384 6.42014 77.7612 12.6618L85.6551 33.5714C85.8794 34.151 86.1933 34.5522 86.597 34.686C87.0007 34.8197 87.494 34.686 87.9874 34.2847L104.403 22.6485C110.413 18.3685 113.912 19.2156 115.84 20.5976C117.724 22.0243 119.473 25.1897 117.007 32.1001L98.8864 82.524C97.7651 85.6002 94.4012 87.9631 91.0822 87.9631ZM28.2 25.9031C28.2897 26.5272 28.4691 27.4189 28.9176 28.5781L47.4863 80.2502C47.6657 80.6961 48.473 81.2756 48.9215 81.2756H91.0822C91.5755 81.2756 92.3829 80.6961 92.5174 80.2502L110.638 29.871C111.265 28.1768 111.445 27.0176 111.49 26.3489C110.817 26.5718 109.785 27.0622 108.305 28.1322L91.8895 39.7685C89.6469 41.3289 87.0007 41.8193 84.6235 41.106C82.2464 40.3926 80.3177 38.5201 79.331 35.9789L71.4371 15.0693C70.854 13.5089 70.3158 12.751 70.0018 12.3943C69.6879 12.751 69.1496 13.5089 68.5666 15.0247L60.6727 35.9343C59.7308 38.4756 57.8022 40.348 55.3802 41.0614C53.0031 41.7747 50.312 41.2843 48.1142 39.7239L30.622 27.2851C29.5904 26.5718 28.7831 26.126 28.2 25.9031Z" fill="#4378E0"/>
<path d="M94.6685 101.427H45.3315C43.4926 101.427 41.9677 99.9114 41.9677 98.0835C41.9677 96.2556 43.4926 94.7397 45.3315 94.7397H94.6685C96.5075 94.7397 98.0324 96.2556 98.0324 98.0835C98.0324 99.9114 96.5075 101.427 94.6685 101.427Z" fill="#4378E0"/>
<path d="M81.213 65.7598H58.787C56.9481 65.7598 55.4232 64.2439 55.4232 62.416C55.4232 60.5881 56.9481 59.0723 58.787 59.0723H81.213C83.0519 59.0723 84.5768 60.5881 84.5768 62.416C84.5768 64.2439 83.0519 65.7598 81.213 65.7598Z" fill="#4378E0"/>
<path d="M17.991 85.2061V88.8107V85.2061ZM16.1778 87.0084H19.8042H16.1778ZM18.8976 97.8225V101.427V97.8225ZM17.0844 99.6248H20.7108H17.0844ZM25.2438 85.2061L27.3163 91.3854L32.4966 93.3166L27.3163 95.2478L25.2438 101.427L23.1713 95.2478L17.991 93.3166L23.1713 91.3854L25.2438 85.2061Z" fill="#4378E0"/>
<path d="M1.83157 2.99023V6.59492V2.99023ZM0.0183716 4.79258H3.64477H0.0183716ZM2.73817 15.6066V19.2113V15.6066ZM0.924971 17.409H4.55137H0.924971ZM9.08437 2.99023L11.1569 9.16957L16.3372 11.1008L11.1569 13.032L9.08437 19.2113L7.01188 13.032L1.83157 11.1008L7.01188 9.16957L9.08437 2.99023Z" fill="#4378E0"/>
<path d="M125.282 16.0708V20.5291V16.0708ZM123.039 18.3H127.524H123.039ZM126.403 31.675V36.1333V31.675ZM124.16 33.9041H128.646H124.16ZM134.252 16.0708L136.815 23.7135L143.222 26.1021L136.815 28.4906L134.252 36.1333L131.689 28.4906L125.282 26.1021L131.689 23.7135L134.252 16.0708Z" fill="#4378E0"/>
</svg>
