<svg width="298" height="200" viewBox="0 0 298 200" fill="none" xmlns="http://www.w3.org/2000/svg">
<g clip-path="url(#clip0_83_9722)">
<g clip-path="url(#clip1_83_9722)">
<path d="M56.5396 132.291H33.4529V100.293H49.8156L56.5396 106.946V132.291Z" fill="white" stroke="#263238" stroke-width="0.504965" stroke-linecap="round" stroke-linejoin="round"/>
<path d="M49.8157 100.293V106.828H56.5397L49.8157 100.293Z" fill="white" stroke="#263238" stroke-width="0.504965" stroke-linecap="round" stroke-linejoin="round"/>
<path d="M37.02 115.403H52.9725" stroke="#263238" stroke-width="0.504965" stroke-linecap="round" stroke-linejoin="round"/>
<path d="M37.02 119.743H52.9725" stroke="#263238" stroke-width="0.504965" stroke-linecap="round" stroke-linejoin="round"/>
<path d="M37.02 124.083H52.9725" stroke="#263238" stroke-width="0.504965" stroke-linecap="round" stroke-linejoin="round"/>
<path d="M56.5396 47.353H33.4529V15.3555H49.8156L56.5396 22.0079V47.353Z" fill="white" stroke="#263238" stroke-width="0.504965" stroke-linecap="round" stroke-linejoin="round"/>
<path d="M49.8157 15.3555V21.8901H56.5397L49.8157 15.3555Z" fill="white" stroke="#263238" stroke-width="0.504965" stroke-linecap="round" stroke-linejoin="round"/>
<path d="M37.02 26.1245H52.9725" stroke="#263238" stroke-width="0.504965" stroke-linecap="round" stroke-linejoin="round"/>
<path d="M37.02 30.4648H52.9725" stroke="#263238" stroke-width="0.504965" stroke-linecap="round" stroke-linejoin="round"/>
<path d="M37.02 34.8042H52.9725" stroke="#263238" stroke-width="0.504965" stroke-linecap="round" stroke-linejoin="round"/>
<path d="M37.02 39.144H52.9725" stroke="#263238" stroke-width="0.504965" stroke-linecap="round" stroke-linejoin="round"/>
</g>
<path d="M195.209 195.722C193.657 195.643 192.132 195.282 190.71 194.655C190.331 194.491 190.033 194.183 189.882 193.799C189.73 193.416 189.737 192.988 189.902 192.609C190.067 192.231 190.376 191.934 190.76 191.783C191.145 191.632 191.574 191.639 191.953 191.804C193.389 192.423 195.228 192.783 195.725 192.572C196.626 191.562 198.025 185.424 196.222 182.497C196.127 182.291 195.984 182.11 195.804 181.97C195.625 181.83 195.415 181.735 195.191 181.692C194.165 181.555 192.649 182.603 192.115 183.105C191.813 183.385 191.412 183.535 191 183.52C190.588 183.506 190.199 183.329 189.918 183.028C189.637 182.727 189.487 182.327 189.502 181.916C189.516 181.505 189.694 181.116 189.996 180.836C190.281 180.569 192.86 178.244 195.589 178.616C196.269 178.719 196.917 178.975 197.483 179.366C198.048 179.758 198.517 180.273 198.851 180.873C201.505 185.176 199.684 193.378 197.652 195.003C196.942 195.51 196.082 195.764 195.209 195.722Z" fill="#263238" stroke="#263238" stroke-width="0.504965" stroke-linecap="round" stroke-linejoin="round"/>
<path d="M192.456 177.345H175.286V200.08H192.456V177.345Z" fill="#263238" stroke="#263238" stroke-width="0.504965" stroke-linecap="round" stroke-linejoin="round"/>
<path d="M176.845 176.099C176.845 176.099 176.845 174.208 180.319 172.317C183.793 170.426 185.701 167.581 183.799 162.218C181.898 156.855 182.221 153.067 186.018 149.911" stroke="#263238" stroke-width="0.504965" stroke-linecap="round" stroke-linejoin="round"/>
<path d="M177.635 155.919C177.809 153.612 178.847 151.666 180.953 149.911" stroke="#263238" stroke-width="0.504965" stroke-linecap="round" stroke-linejoin="round"/>
<path d="M178.741 162.218C178.397 161.262 178.117 160.284 177.902 159.292" stroke="#263238" stroke-width="0.504965" stroke-linecap="round" stroke-linejoin="round"/>
<path d="M190.971 164.066C190.836 163.435 190.659 162.814 190.443 162.206C190.343 161.914 190.244 161.629 190.157 161.35" stroke="#263238" stroke-width="0.504965" stroke-linecap="round" stroke-linejoin="round"/>
<path d="M183.483 176.1C183.483 176.1 183.483 174.209 186.963 172.318C189.25 171.078 190.847 169.422 191.145 166.924" stroke="#263238" stroke-width="0.504965" stroke-linecap="round" stroke-linejoin="round"/>
<path d="M221.813 172.851C221.813 172.851 219.887 170.408 217.793 169.366C215.698 168.325 211.33 167.444 211.33 167.444C211.33 167.444 215.17 166.576 218.166 167.271C221.161 167.965 223.237 170.935 223.237 170.935C223.237 170.935 222.36 169.695 221.136 166.049C219.912 162.404 219.893 154.549 219.893 154.549C221.755 156.721 223.227 159.198 224.243 161.871C225.089 164.301 225.674 166.813 225.99 169.366C225.99 169.366 225.642 163.266 226.692 159.781C227.742 156.297 230.706 151.938 230.706 151.938C230.706 151.938 230.88 159.602 229.662 163.786C228.444 167.971 227.91 169.887 227.91 169.887C228.676 167.714 229.933 165.746 231.583 164.134C234.199 161.697 240.488 159.602 240.488 159.602C240.488 159.602 237.517 165.008 235.597 166.75C233.677 168.492 231.757 170.408 231.757 170.408C233.476 169.32 235.483 168.774 237.517 168.839C241.19 168.839 245.553 171.282 245.553 171.282C245.553 171.282 232.807 171.108 230.358 173.198L221.813 172.851Z" fill="#4378E0" stroke="#263238" stroke-width="0.504965" stroke-miterlimit="10"/>
<path d="M224.181 171.908L222.031 170.426" stroke="#263238" stroke-width="0.504965" stroke-linecap="round" stroke-linejoin="round"/>
<path d="M226.499 173.068L223.522 165.138" stroke="#263238" stroke-width="0.504965" stroke-linecap="round" stroke-linejoin="round"/>
<path d="M226.17 174.059L228.158 162.497" stroke="#263238" stroke-width="0.504965" stroke-linecap="round" stroke-linejoin="round"/>
<path d="M226.499 173.068L232.129 166.13" stroke="#263238" stroke-width="0.504965" stroke-linecap="round" stroke-linejoin="round"/>
<path d="M225.399 172.354L233.621 170.259" stroke="#263238" stroke-width="0.504965" stroke-linecap="round" stroke-linejoin="round"/>
<path d="M236.467 200.08H219.035L218.246 193.763C217.673 189.151 217.645 184.487 218.165 179.869L219.035 172.15H236.498L237.356 179.701C237.885 184.315 237.864 188.974 237.294 193.583L236.467 200.08Z" fill="#263238"/>
<path d="M237.623 188.214L235.007 172.355L231.508 199.714L225.399 172.355L221.726 200.068L219.004 172.15" fill="#263238"/>
<path d="M237.623 188.214L235.007 172.355L231.508 199.714L225.399 172.355L221.726 200.068L219.004 172.15" stroke="white" stroke-width="0.504965" stroke-linecap="round" stroke-linejoin="round"/>
<path d="M236.467 200.08H219.035L218.246 193.763C217.673 189.151 217.645 184.487 218.165 179.869L219.035 172.15H236.498L237.356 179.701C237.885 184.315 237.864 188.974 237.294 193.583L236.467 200.08Z" stroke="#263238" stroke-width="0.504965" stroke-miterlimit="10"/>
<path d="M75.7673 92.5618C88.2946 92.5618 98.4501 82.4302 98.4501 69.9322C98.4501 57.4343 88.2946 47.3027 75.7673 47.3027C63.2399 47.3027 53.0845 57.4343 53.0845 69.9322C53.0845 82.4302 63.2399 92.5618 75.7673 92.5618Z" stroke="#B2B2B2" stroke-width="0.504965" stroke-miterlimit="10"/>
<path d="M75.7673 88.0358C85.7892 88.0358 93.9136 79.9306 93.9136 69.9322C93.9136 59.9339 85.7892 51.8286 75.7673 51.8286C65.7454 51.8286 57.6211 59.9339 57.6211 69.9322C57.6211 79.9306 65.7454 88.0358 75.7673 88.0358Z" stroke="#B2B2B2" stroke-width="0.504965" stroke-miterlimit="10"/>
<path d="M72.9397 69.9324C72.9385 70.4906 73.1033 71.0366 73.4132 71.5013C73.7232 71.9661 74.1643 72.3286 74.6809 72.543C75.1975 72.7575 75.7662 72.8143 76.3151 72.7061C76.864 72.598 77.3684 72.3298 77.7645 71.9355C78.1605 71.5412 78.4305 71.0386 78.5401 70.4912C78.6497 69.9439 78.594 69.3764 78.3802 68.8605C78.1664 68.3447 77.804 67.9038 77.3388 67.5935C76.8737 67.2833 76.3268 67.1177 75.7673 67.1177C75.0184 67.1177 74.3002 67.414 73.7701 67.9417C73.24 68.4694 72.9413 69.1853 72.9397 69.9324Z" stroke="#B2B2B2" stroke-width="0.504965" stroke-miterlimit="10"/>
<path d="M75.7673 72.7471V83.417" stroke="#B2B2B2" stroke-width="0.504965" stroke-miterlimit="10"/>
<path d="M78.5889 69.9321H85.2321" stroke="#B2B2B2" stroke-width="0.504965" stroke-miterlimit="10"/>
<path d="M265.023 200.081H0.926514" stroke="#263238" stroke-width="0.504965" stroke-linecap="round" stroke-linejoin="round"/>
<path d="M122.494 120.152C122.494 120.152 120.835 131.498 122.494 133.63C124.153 135.763 127.944 137.412 133.394 139.068C138.844 140.723 142.399 137.17 147.607 143.085C152.814 149 157.09 164.121 159.93 168.852C162.77 173.582 166.095 180.911 166.834 186.373C167.574 191.835 165.175 194.879 160.433 195.592C155.692 196.305 147.383 184.717 146.457 183.062C145.531 181.407 140.976 175.951 140.976 175.951C140.976 175.951 138.366 195.102 138.366 196.044C138.366 196.987 138.602 200.062 138.602 200.062H70.3608C70.3608 200.062 75.5748 171.698 76.9917 161.765C78.4086 151.833 77.7063 145.218 83.3926 141.672C89.0788 138.125 94.2927 139.074 98.0836 137.89C101.874 136.705 104.242 135.763 104.484 133.637C104.727 131.51 104.721 121.578 104.721 121.578L122.494 120.152Z" fill="#4378E0" stroke="#263238" stroke-width="0.504965" stroke-linecap="round" stroke-linejoin="round"/>
<path d="M72.8216 188.896L41.6125 197.092L44.0797 200.093H79.6699" fill="#4378E0"/>
<path d="M72.8216 188.896L41.6125 197.092L44.0797 200.093H79.6699" stroke="#263238" stroke-width="0.504965" stroke-linecap="round" stroke-linejoin="round"/>
<path d="M37.6354 193.961C36.2674 193.114 34.7349 192.565 33.1388 192.351C31.5428 192.137 29.9195 192.263 28.3758 192.721C23.3235 194.19 20.7942 198.605 20.7942 200.074H42.0601C41.7972 198.801 41.2669 197.598 40.5043 196.545C39.7416 195.491 38.7639 194.61 37.6354 193.961Z" fill="#808080" stroke="#263238" stroke-width="0.504965" stroke-linecap="round" stroke-linejoin="round"/>
<path d="M24.585 188.92C24.585 188.92 21.8444 192.913 21.8444 194.382C21.8444 195.852 20.3716 197.321 22.4659 197.954C24.5601 198.586 25.8341 191.233 25.8341 190.396C25.8341 189.559 24.585 188.92 24.585 188.92Z" fill="white" stroke="#263238" stroke-width="0.504965" stroke-linecap="round" stroke-linejoin="round"/>
<path d="M28.376 188.716C28.376 188.716 25.4241 188.096 24.5851 188.921C23.7462 189.745 22.2671 197.117 22.4784 197.954C22.6897 198.791 24.7964 199.002 25.4241 198.165C26.0517 197.328 28.376 188.716 28.376 188.716Z" fill="white" stroke="#263238" stroke-width="0.504965" stroke-linecap="round" stroke-linejoin="round"/>
<path d="M49.8532 195.046L44.8816 194.482C44.6006 194.146 44.293 193.833 43.9619 193.546C43.0238 192.963 42.0335 192.469 41.0038 192.07C41.0038 192.07 32.1606 188.914 30.2652 187.656C28.3698 186.397 27.3196 188.896 26.6919 190.39C26.0642 191.884 24.5852 197.11 24.5852 198.58C24.5852 200.049 26.897 200.675 27.3196 198.995C27.7422 197.315 31.1104 191.859 31.1104 191.859L35.5289 193.539C35.5289 193.539 35.9515 194.159 34.056 195.43C32.1606 196.701 29.4263 199.417 30.2652 199.838C31.1042 200.26 33.6335 200.049 34.4786 199.218C35.3238 198.388 39.7423 197.358 39.7423 197.358C39.7423 197.358 43.7444 199.882 44.5834 200.093C45.1264 200.172 45.6753 200.205 46.224 200.192H51.3571C51.5771 199.278 51.5541 198.322 51.2903 197.42C51.0266 196.517 50.5312 195.699 49.8532 195.046Z" fill="white" stroke="#263238" stroke-width="0.504965" stroke-linecap="round" stroke-linejoin="round"/>
<path d="M34.5964 195.046C34.5964 195.046 36.4608 192.926 37.9709 192.672" stroke="#263238" stroke-width="0.504965" stroke-linecap="round" stroke-linejoin="round"/>
<path d="M156.891 177.878C159.141 178.607 161.347 179.466 163.497 180.451C166.561 181.896 167.692 185.411 167.226 189.782C166.759 194.153 163.677 197.507 159.147 196.218C154.616 194.928 152.211 191.258 152.05 188.331C151.888 185.405 150.577 178.839 156.891 177.878Z" fill="white" stroke="#263238" stroke-width="0.504965" stroke-linecap="round" stroke-linejoin="round"/>
<path d="M108.984 152.8C98.3196 152.422 91.4029 145.868 87.2703 139.867C91.4277 138.478 95.1751 138.813 98.0834 137.908C101.874 136.724 104.242 135.781 104.484 133.655C104.727 131.528 104.72 121.596 104.72 121.596L122.494 120.176C122.494 120.176 120.835 131.522 122.494 133.655C124.153 135.788 127.944 137.437 133.394 139.092C135.78 139.811 137.8 139.538 139.764 139.501C136.563 142.986 125.576 153.389 108.984 152.8Z" fill="white" stroke="#263238" stroke-width="0.504965" stroke-linecap="round" stroke-linejoin="round"/>
<path d="M104.689 128.701C106.027 129.991 107.507 131.124 109.102 132.08C111.948 133.68 116.82 132.26 118.243 130.487C118.939 129.619 120.375 127.907 121.91 125.849C122.127 122.855 122.531 120.176 122.531 120.176L104.758 121.596C104.758 121.596 104.721 125.322 104.689 128.701Z" fill="#263238" stroke="#263238" stroke-width="0.504965" stroke-linecap="round" stroke-linejoin="round"/>
<path d="M158.967 157.122C158.967 157.122 149.291 169.831 148.321 175.145C147.352 180.458 144.288 193.31 144.288 193.31C144.288 193.31 134.935 197.334 128.97 197.495C123.004 197.656 112.681 196.689 112.681 196.689C112.681 196.689 119.294 179.671 121.873 171.121C124.452 162.571 125.098 157.766 125.098 157.766C125.098 157.766 139.776 159.695 148.16 157.766L160.738 154.871L158.967 157.122Z" fill="white" stroke="#263238" stroke-width="0.504965" stroke-linecap="round" stroke-linejoin="round"/>
<path d="M158.507 183.768C158.507 183.768 157.326 168.889 155.903 168.405C154.48 167.921 145.96 166.75 143.58 167.221C141.199 167.692 140.472 168.641 142.399 169.112C144.325 169.583 147.607 170.06 149.03 170.296C150.636 170.677 152.22 171.151 153.771 171.716C153.771 171.716 148.557 172.423 146.426 172.423C144.294 172.423 139.316 174.549 139.08 175.522C138.94 176.084 139.025 176.678 139.316 177.178C139.191 177.666 139.204 178.179 139.354 178.66C139.59 179.608 145.239 179.137 146.662 179.373C148.085 179.608 150.925 180.29 150.925 180.29C150.925 180.29 142.635 179.819 142.635 181.474C142.635 183.13 146.183 182.888 147.607 182.888C149.33 183.078 150.969 183.731 152.348 184.779C153.057 185.492 152.821 189.199 154.952 189.912C155.866 190.27 156.823 190.508 157.798 190.619" fill="white"/>
<path d="M158.507 183.768C158.507 183.768 157.326 168.889 155.903 168.405C154.48 167.921 145.96 166.75 143.58 167.221C141.199 167.692 140.472 168.641 142.399 169.112C144.325 169.583 147.607 170.06 149.03 170.296C150.636 170.677 152.22 171.151 153.771 171.716C153.771 171.716 148.557 172.423 146.426 172.423C144.294 172.423 139.316 174.549 139.08 175.522C138.94 176.084 139.025 176.678 139.316 177.178C139.191 177.666 139.204 178.179 139.354 178.66C139.59 179.608 145.239 179.137 146.662 179.373C148.085 179.608 150.925 180.29 150.925 180.29C150.925 180.29 142.635 179.819 142.635 181.474C142.635 183.13 146.183 182.888 147.607 182.888C149.33 183.078 150.969 183.731 152.348 184.779C153.057 185.492 152.821 189.199 154.952 189.912C155.866 190.27 156.823 190.508 157.798 190.619" stroke="#263238" stroke-width="0.504965" stroke-linecap="round" stroke-linejoin="round"/>
<path d="M139.316 177.153C139.316 177.153 148.793 175.02 153.535 177.388" stroke="#263238" stroke-width="0.504965" stroke-linecap="round" stroke-linejoin="round"/>
<path d="M87.9102 164.388C87.9102 164.388 84.1194 177.624 84.8341 182.367C85.5487 187.11 87.6741 192.529 87.9102 193.242C88.1464 193.955 87.0775 199.56 87.0775 199.56" stroke="#263238" stroke-width="0.504965" stroke-linecap="round" stroke-linejoin="round"/>
<path d="M80.0988 91.0991C82.2304 88.9725 80.0988 87.7883 80.335 85.4262C80.5711 83.064 82.9389 81.8799 84.1258 81.4087C85.3128 80.9375 84.8343 79.7533 85.0766 77.1494C85.319 74.5454 88.1528 73.603 90.0482 72.8963C91.9436 72.1895 90.7629 71.0363 91.7075 69.1143C92.6521 67.1924 97.8722 67.6946 97.8722 67.6946C97.8722 67.6946 99.053 65.568 100.476 65.568C101.899 65.568 102.844 67.459 104.739 65.8036C106.635 64.1482 108.294 63.4414 110.904 64.3838C111.747 64.7185 112.613 64.992 113.495 65.2022C114.38 64.993 115.248 64.7195 116.093 64.3838C118.697 63.4414 120.356 64.1482 122.252 65.8036C124.147 67.459 125.098 65.568 126.521 65.568C127.944 65.568 129.125 67.6946 129.125 67.6946C129.125 67.6946 134.339 67.2234 135.289 69.1143C136.24 71.0053 135.047 72.1833 136.943 72.8963C138.838 73.6092 141.684 74.5516 141.914 77.1494C142.144 79.7471 141.678 80.9313 142.865 81.4087C144.052 81.8861 146.42 83.0578 146.656 85.4262C146.892 87.7945 144.791 88.9725 146.892 91.0991C148.992 93.2256 151.155 94.881 149.26 96.3007C147.364 97.7205 145.469 98.1917 145.705 100.318C145.941 102.445 148.315 105.049 146.42 106.227C144.524 107.405 142.629 107.411 142.629 109.537C142.629 111.664 143.337 114.739 141.206 115.21C139.074 115.682 135.992 115.21 135.992 116.63C135.992 118.05 135.756 120.648 132.437 120.176C129.119 119.705 127.938 118.757 127.223 120.648C126.508 122.539 124.855 123.748 122.96 123.487C121.065 123.227 118.455 123.016 116.795 124.43C115.977 125.065 115.002 125.467 113.974 125.595V125.676C113.812 125.676 113.651 125.676 113.489 125.676C113.328 125.676 113.166 125.676 113.004 125.676V125.595C111.976 125.465 111.002 125.063 110.183 124.43C108.524 123.016 105.92 123.252 104.025 123.487C102.129 123.723 100.47 122.539 99.7614 120.648C99.053 118.757 97.866 119.705 94.5475 120.176C91.2289 120.648 90.9928 118.05 90.9928 116.63C90.9928 115.21 87.8856 115.688 85.7789 115.21C83.6722 114.733 84.3557 111.664 84.3557 109.537C84.3557 107.411 82.4914 107.411 80.5649 106.227C78.6384 105.043 81.0372 102.445 81.2734 100.318C81.5095 98.1917 79.6141 97.7205 77.7187 96.3007C75.8233 94.881 77.9673 93.2256 80.0988 91.0991Z" fill="#263238" stroke="#263238" stroke-width="0.504965" stroke-linecap="round" stroke-linejoin="round"/>
<path d="M99.0966 104.163C99.0966 104.163 96.3995 100.126 94.7775 102.011C93.1555 103.896 93.7024 108.738 95.8588 111.162C98.0152 113.586 100.439 112.774 100.439 112.774" fill="white"/>
<path d="M99.0966 104.163C99.0966 104.163 96.3995 100.126 94.7775 102.011C93.1555 103.896 93.7024 108.738 95.8588 111.162C98.0152 113.586 100.439 112.774 100.439 112.774" stroke="#263238" stroke-width="0.504965" stroke-linecap="round" stroke-linejoin="round"/>
<path d="M127.938 103.957C127.938 103.957 131.089 100.238 132.474 102.321C133.86 104.404 132.754 109.141 130.33 111.28C127.907 113.418 125.589 112.352 125.589 112.352" fill="white"/>
<path d="M127.938 103.957C127.938 103.957 131.089 100.238 132.474 102.321C133.86 104.404 132.754 109.141 130.33 111.28C127.907 113.418 125.589 112.352 125.589 112.352" stroke="#263238" stroke-width="0.504965" stroke-linecap="round" stroke-linejoin="round"/>
<path d="M126.813 94.41C126.338 94.8406 125.771 95.1594 125.156 95.3429C124.541 95.5263 123.893 95.5699 123.258 95.4702C122.084 95.3 120.944 94.9421 119.884 94.41C119.884 94.41 117.752 95.8298 116.155 95.2966C114.558 94.7634 112.774 94.2302 112.774 94.2302C111.606 94.9456 110.212 95.1999 108.866 94.9432C106.38 94.5836 105.665 94.0566 105.665 94.0566C105.665 94.0566 104.242 95.2966 102.825 95.2966C101.934 95.2935 101.043 95.2335 100.159 95.1168C99.77 95.3095 99.3487 95.4293 98.9162 95.4702H97.6733C97.6733 95.4702 97.1451 106.109 98.9162 113.735C100.687 121.361 107.616 127.034 110.469 128.615C113.321 130.196 118.194 128.794 119.617 127.021C121.04 125.248 125.576 119.929 127.695 115.316C129.815 110.703 130.542 97.231 130.542 96.3444C130.542 95.4578 127.683 96.5366 126.813 94.41Z" fill="white" stroke="#263238" stroke-width="0.504965" stroke-linecap="round" stroke-linejoin="round"/>
<path d="M116.783 100.616C116.541 100.718 116.336 100.892 116.195 101.113C116.054 101.335 115.984 101.594 115.994 101.856C116.056 103.864 116.354 108.638 117.752 109.475C119.53 110.535 127.826 111.335 129.839 110.002C130.902 109.296 133.214 103.089 132.325 101.322C131.436 99.5555 123.892 97.7017 116.783 100.616Z" stroke="#263238" stroke-width="0.504965" stroke-linecap="round" stroke-linejoin="round"/>
<path d="M111.295 100.616C111.537 100.718 111.742 100.892 111.883 101.113C112.024 101.335 112.094 101.594 112.085 101.856C112.023 103.864 111.724 108.638 110.326 109.475C108.549 110.535 100.252 111.335 98.2389 110.002C97.1762 109.296 94.8644 103.089 95.7531 101.322C96.6418 99.5555 104.186 97.7017 111.295 100.616Z" stroke="#263238" stroke-width="0.504965" stroke-linecap="round" stroke-linejoin="round"/>
<path d="M116.783 100.616C116.783 100.616 113.489 99.9027 111.351 100.969" stroke="#263238" stroke-width="0.504965" stroke-linecap="round" stroke-linejoin="round"/>
<path d="M115.621 102.742H112.24" stroke="#263238" stroke-width="0.504965" stroke-linecap="round" stroke-linejoin="round"/>
<path d="M120.953 107.355C121.543 107.355 122.022 106.481 122.022 105.402C122.022 104.324 121.543 103.449 120.953 103.449C120.362 103.449 119.884 104.324 119.884 105.402C119.884 106.481 120.362 107.355 120.953 107.355Z" fill="#263238"/>
<path d="M108.866 107.355C109.456 107.355 109.934 106.481 109.934 105.402C109.934 104.324 109.456 103.449 108.866 103.449C108.275 103.449 107.797 104.324 107.797 105.402C107.797 106.481 108.275 107.355 108.866 107.355Z" fill="#263238"/>
<path d="M115.254 106.642C115.254 106.642 115.074 109.122 115.962 110.009C116.851 110.895 117.914 111.608 116.671 112.489C115.428 113.369 114.365 114.082 112.588 112.489" stroke="#263238" stroke-width="0.504965" stroke-linecap="round" stroke-linejoin="round"/>
<path d="M118.461 116.215C118.461 116.215 114.017 118.348 110.108 115.508" stroke="#263238" stroke-width="0.504965" stroke-linecap="round" stroke-linejoin="round"/>
<path d="M124.327 101.502C123.624 100.978 122.801 100.638 121.932 100.514C121.064 100.389 120.178 100.484 119.355 100.789" stroke="#263238" stroke-width="0.504965" stroke-linecap="round" stroke-linejoin="round"/>
<path d="M109.754 101.323C109.754 101.323 105.665 99.1962 103.353 102.563" stroke="#263238" stroke-width="0.504965" stroke-linecap="round" stroke-linejoin="round"/>
<path d="M124.507 135.186L110.643 169.229L102.465 136.606" stroke="#263238" stroke-width="0.504965" stroke-linecap="round" stroke-linejoin="round"/>
<path d="M108.865 170.829C108.865 171.216 108.98 171.593 109.195 171.914C109.41 172.236 109.716 172.486 110.074 172.634C110.432 172.782 110.825 172.82 111.205 172.745C111.585 172.669 111.933 172.483 112.207 172.21C112.481 171.937 112.667 171.589 112.743 171.21C112.819 170.832 112.78 170.439 112.632 170.082C112.483 169.725 112.233 169.42 111.911 169.206C111.589 168.991 111.21 168.876 110.823 168.876C110.304 168.876 109.806 169.082 109.439 169.448C109.072 169.815 108.865 170.311 108.865 170.829Z" fill="#263238" stroke="#263238" stroke-width="0.504965" stroke-linecap="round" stroke-linejoin="round"/>
<path d="M66.6508 200.086H120.207V198.431H66.6508V200.086Z" fill="#808080" stroke="#263238" stroke-width="0.504965" stroke-linecap="round" stroke-linejoin="round"/>
<path d="M27.5554 163.675H81.3416L92.2418 200.08H38.4556L27.5554 163.675Z" fill="#808080" stroke="#263238" stroke-width="0.504965" stroke-linecap="round" stroke-linejoin="round"/>
<g clip-path="url(#clip2_83_9722)">
<path d="M40.0221 103.613V104.431M39.6133 104.022H40.431M40.2266 106.475V107.293M39.8177 106.884H40.6354M41.6576 103.613L42.1249 105.015L43.293 105.453L42.1249 105.891L41.6576 107.293L41.1902 105.891L40.0221 105.453L41.1902 105.015L41.6576 103.613Z" stroke="#263238" stroke-width="0.245312" stroke-linecap="round" stroke-linejoin="round"/>
</g>
</g>
<defs>
<clipPath id="clip0_83_9722">
<rect width="296.414" height="200" fill="white" transform="translate(0.792969)"/>
</clipPath>
<clipPath id="clip1_83_9722">
<rect width="62" height="117" fill="white" transform="translate(33 15)"/>
</clipPath>
<clipPath id="clip2_83_9722">
<rect width="4.90625" height="4.90625" fill="white" transform="translate(39 103)"/>
</clipPath>
</defs>
</svg>
