<svg width="24" height="24" viewBox="0 0 24 24" fill="none" xmlns="http://www.w3.org/2000/svg">
<path d="M3.7499 9.776C3.8619 9.759 3.9769 9.75 4.0939 9.75H19.9059C20.0229 9.75 20.1379 9.759 20.2499 9.776M3.7499 9.776C3.16467 9.86663 2.63876 10.1843 2.28626 10.6602C1.93375 11.1361 1.78307 11.7318 1.8669 12.318L2.7239 18.318C2.80045 18.8541 3.0678 19.3447 3.47688 19.6996C3.88597 20.0545 4.40933 20.2499 4.9509 20.25H19.0499C19.5915 20.2499 20.1148 20.0545 20.5239 19.6996C20.933 19.3447 21.2004 18.8541 21.2769 18.318L22.1339 12.318C22.2177 11.7318 22.0671 11.1361 21.7146 10.6602C21.362 10.1843 20.8351 9.86663 20.2499 9.776M3.7499 9.776L3.7509 6C3.7509 5.40344 3.98782 4.83129 4.40956 4.40936C4.8313 3.98744 5.40334 3.75027 5.9999 3.75H9.8789C10.2766 3.75035 10.6579 3.90862 10.9389 4.19L13.0609 6.31C13.3419 6.59138 13.7232 6.74965 14.1209 6.75H17.9999C18.5966 6.75 19.1689 6.98705 19.5909 7.40901C20.0129 7.83097 20.2499 8.40326 20.2499 9V9.776" stroke="#2F3A4C" stroke-width="1.5" stroke-linecap="round" stroke-linejoin="round"/>
</svg>
