<svg width="32" height="32" viewBox="0 0 32 32" fill="none" xmlns="http://www.w3.org/2000/svg">
<path d="M22.2556 13.0705L24.6445 10.6815C25.5629 9.76308 25.5629 8.27402 24.6445 7.35558C23.7261 6.43714 22.2369 6.43714 21.3185 7.35558L18.9296 9.74452M22.2556 13.0705L8.01478 27.3113C7.09634 28.2297 5.60727 28.2297 4.68883 27.3113C3.77039 26.3929 3.77039 24.9037 4.68883 23.9853L18.9296 9.74452M22.2556 13.0705L18.9296 9.74452L22.2556 13.0705Z" fill="url(#paint0_linear_101_6229)"/>
<path d="M19.0059 9.72339L22.2747 13.0274" stroke="white" stroke-width="1.33333"/>
<path d="M23.965 18.6954C23.9727 18.6572 24.0274 18.6572 24.0351 18.6954C24.4403 20.6776 25.9892 22.2265 27.9714 22.6317C28.0096 22.6394 28.0096 22.6941 27.9714 22.7018C25.9892 23.107 24.4403 24.656 24.0351 26.6381C24.0274 26.6764 23.9727 26.6764 23.965 26.6381C23.5598 24.656 22.0108 23.107 20.0287 22.7018C19.9904 22.6941 19.9904 22.6394 20.0287 22.6317C22.0108 22.2265 23.5598 20.6776 23.965 18.6954Z" fill="url(#paint1_linear_101_6229)"/>
<path d="M10.8275 4.41289C10.94 3.86237 11.7266 3.86237 11.8392 4.41289C12.0877 5.62878 13.0379 6.57898 14.2537 6.8275C14.8043 6.94004 14.8043 7.72662 14.2537 7.83916C13.0379 8.08768 12.0877 9.03788 11.8392 10.2538C11.7266 10.8043 10.94 10.8043 10.8275 10.2538C10.579 9.03788 9.62878 8.08768 8.41289 7.83916C7.86237 7.72662 7.86237 6.94004 8.41289 6.8275C9.62878 6.57898 10.579 5.62878 10.8275 4.41289Z" fill="url(#paint2_linear_101_6229)"/>
<defs>
<linearGradient id="paint0_linear_101_6229" x1="14.6667" y1="6.66675" x2="14.6667" y2="28.0001" gradientUnits="userSpaceOnUse">
<stop stop-color="#30559F"/>
<stop offset="1" stop-color="#4378E0"/>
</linearGradient>
<linearGradient id="paint1_linear_101_6229" x1="24" y1="18.6667" x2="24" y2="26.6668" gradientUnits="userSpaceOnUse">
<stop stop-color="#30559F"/>
<stop offset="1" stop-color="#4378E0"/>
</linearGradient>
<linearGradient id="paint2_linear_101_6229" x1="11.3333" y1="4" x2="11.3333" y2="10.6667" gradientUnits="userSpaceOnUse">
<stop stop-color="#30559F"/>
<stop offset="1" stop-color="#4378E0"/>
</linearGradient>
</defs>
</svg>
