<svg width="168" height="160" viewBox="0 0 168 160" fill="none" xmlns="http://www.w3.org/2000/svg">
<path d="M155.613 122.214L90.0685 160.001L16.2598 117.352L81.8044 79.5747L155.613 122.214Z" fill="#4378E0"/>
<path opacity="0.5" d="M155.613 122.214L90.0685 160.001L16.2598 117.352L81.8044 79.5747L155.613 122.214Z" fill="black"/>
<path d="M81.8044 28.3555V79.5743L16.2598 117.352V66.1419L81.8044 28.3555Z" fill="#4378E0"/>
<path opacity="0.23" d="M81.8044 28.3555V79.5743L16.2598 117.352V66.1419L81.8044 28.3555Z" fill="black"/>
<path d="M90.0685 108.782V160L16.2598 117.352V66.1421L90.0685 108.782Z" fill="#4378E0"/>
<path opacity="0.38" d="M90.0685 108.782V160L16.2598 117.352V66.1421L90.0685 108.782Z" fill="black"/>
<path d="M155.613 70.9949V122.214L81.8047 79.5743V28.3555L155.613 70.9949Z" fill="#4378E0"/>
<path opacity="0.4" d="M155.613 70.9949V122.214L81.8047 79.5743V28.3555L155.613 70.9949Z" fill="black"/>
<path d="M155.613 122.213V70.9946L90.0684 108.781V160L155.613 122.213Z" fill="#4378E0"/>
<path opacity="0.23" d="M155.613 122.213V70.9946L90.0684 108.781V160L155.613 122.213Z" fill="black"/>
<path d="M81.8047 28.3553L81.8935 0L155.525 42.6927L155.613 70.9948L81.8047 28.3553Z" fill="#4378E0"/>
<path opacity="0.2" d="M81.8047 28.3553L81.8935 0L155.525 42.6927L155.613 70.9948L81.8047 28.3553Z" fill="black"/>
<path d="M90.0684 108.782L96.2176 83.975L161.167 46.5347L155.613 70.9951L90.0684 108.782Z" fill="#4378E0"/>
<path opacity="0.3" d="M90.0684 108.782L96.2176 83.975L161.167 46.5347L155.613 70.9951L90.0684 108.782Z" fill="black"/>
<path d="M16.2598 66.142L8.43994 40.4128L73.9845 2.63525L81.8044 28.3556L16.2598 66.142Z" fill="#4378E0"/>
<path opacity="0.1" d="M16.2598 66.142L8.43994 40.4128L73.9845 2.63525L81.8044 28.3556L16.2598 66.142Z" fill="black"/>
<path d="M16.2599 66.1415L0.833496 44.875L74.6512 87.5145L90.0687 108.781L16.2599 66.1415Z" fill="#4378E0"/>
<path opacity="0.45" d="M16.2599 66.1415L0.833496 44.875L74.6512 87.5145L90.0687 108.781L16.2599 66.1415Z" fill="black"/>
<g opacity="0.7">
<path d="M109.369 144.767C109.262 144.767 109.16 144.725 109.083 144.65C109.007 144.576 108.963 144.474 108.96 144.368V135.353C108.963 135.246 109.007 135.143 109.083 135.067C109.159 134.991 109.262 134.948 109.369 134.945C109.476 134.948 109.578 134.992 109.653 135.068C109.727 135.144 109.769 135.247 109.769 135.353V144.368C109.769 144.473 109.727 144.575 109.652 144.65C109.577 144.725 109.475 144.767 109.369 144.767Z" fill="white"/>
<path d="M108.188 138.476C108.135 138.485 108.081 138.485 108.028 138.476C107.931 138.432 107.855 138.352 107.815 138.253C107.775 138.154 107.775 138.043 107.815 137.944L109.254 134.635L110.854 136.48C110.911 136.563 110.936 136.664 110.923 136.763C110.911 136.863 110.862 136.954 110.786 137.02C110.71 137.086 110.612 137.122 110.512 137.12C110.411 137.119 110.314 137.081 110.24 137.012L109.485 136.125L108.597 138.255C108.558 138.328 108.499 138.388 108.426 138.428C108.353 138.467 108.27 138.484 108.188 138.476Z" fill="white"/>
<path d="M113.093 142.646C112.986 142.644 112.884 142.6 112.809 142.523C112.735 142.447 112.693 142.345 112.693 142.238V133.233C112.693 133.127 112.735 133.025 112.81 132.95C112.885 132.876 112.987 132.833 113.093 132.833C113.199 132.833 113.301 132.876 113.376 132.95C113.451 133.025 113.493 133.127 113.493 133.233V142.229C113.494 142.283 113.484 142.336 113.465 142.386C113.445 142.436 113.416 142.482 113.379 142.52C113.342 142.559 113.298 142.59 113.249 142.612C113.199 142.633 113.146 142.645 113.093 142.646Z" fill="white"/>
<path d="M111.911 136.356C111.858 136.365 111.804 136.365 111.751 136.356C111.702 136.335 111.658 136.304 111.621 136.266C111.585 136.228 111.556 136.182 111.537 136.133C111.518 136.083 111.509 136.03 111.51 135.977C111.512 135.924 111.524 135.872 111.547 135.824L112.977 132.47L114.577 134.307C114.651 134.383 114.692 134.485 114.692 134.591C114.692 134.697 114.651 134.798 114.577 134.875C114.54 134.912 114.495 134.942 114.446 134.962C114.398 134.983 114.345 134.993 114.292 134.993C114.239 134.993 114.187 134.983 114.138 134.962C114.089 134.942 114.045 134.912 114.008 134.875L113.253 133.987L112.364 136.117C112.327 136.202 112.262 136.273 112.18 136.316C112.097 136.36 112.002 136.374 111.911 136.356Z" fill="white"/>
</g>
<g opacity="0.7">
<path d="M98.6262 150.879C98.4743 150.882 98.3244 150.845 98.1908 150.773C98.0301 150.67 97.9 150.526 97.814 150.356C97.7281 150.186 97.6894 149.996 97.7021 149.806V148.697C97.7044 148.59 97.7485 148.489 97.8249 148.414C97.9013 148.339 98.0039 148.297 98.1108 148.298C98.2169 148.298 98.3186 148.34 98.3936 148.414C98.4686 148.489 98.5107 148.591 98.5107 148.697V149.806C98.5107 149.965 98.5107 150.054 98.5907 150.072C98.6707 150.09 98.7151 150.072 98.8484 150.001C99.0985 149.77 99.2955 149.488 99.4259 149.174C99.5563 148.86 99.617 148.522 99.6037 148.182V143.569C99.6037 143.463 99.6458 143.361 99.7208 143.286C99.7958 143.211 99.8975 143.169 100.004 143.169C100.11 143.169 100.211 143.211 100.286 143.286C100.361 143.361 100.403 143.463 100.403 143.569V148.182C100.423 148.661 100.33 149.138 100.131 149.574C99.9316 150.011 99.6323 150.394 99.2571 150.693C99.0672 150.81 98.8494 150.874 98.6262 150.879Z" fill="white"/>
<path d="M94.3877 147.162V146.47C94.4933 144.693 95.0136 142.966 95.9069 141.425C96.8002 139.885 98.0419 138.574 99.5328 137.598C100.99 136.764 102.376 136.64 103.443 137.261C104.011 137.65 104.465 138.185 104.756 138.809C105.047 139.434 105.164 140.125 105.096 140.81V141.04L94.3877 147.162ZM101.95 137.634C101.238 137.666 100.547 137.88 99.9416 138.255C98.664 139.094 97.5822 140.198 96.7696 141.491C95.957 142.785 95.4325 144.238 95.2319 145.752L104.269 140.535C104.308 140.021 104.213 139.506 103.993 139.039C103.774 138.573 103.437 138.171 103.016 137.873C102.688 137.701 102.32 137.619 101.95 137.634Z" fill="white"/>
</g>
<path opacity="0.7" d="M0.833496 44.875L74.6512 87.5145L90.0687 108.781L73.8336 88.2686L0.833496 44.875Z" fill="white"/>
<path d="M107.051 61.1938C121.977 36.3046 135.513 27.0256 167.596 17.4673" stroke="#344054" stroke-dasharray="2 2"/>
<path d="M75.3945 50.2188C60.4692 25.3295 46.9327 16.0505 14.8501 6.49219" stroke="#344054" stroke-dasharray="2 2"/>
<path opacity="0.7" d="M155.613 70.9946L90.0684 108.781V160L91.2946 109.81L155.613 70.9946Z" fill="white"/>
</svg>
