<svg width="21" height="20" viewBox="0 0 21 20" fill="none" xmlns="http://www.w3.org/2000/svg">
<path d="M8.5525 14.1667H12.4467M10.5 2.5V3.33333M15.8033 4.69667L15.2142 5.28583M18 10H17.1667M3.83333 10H3M5.78583 5.28583L5.19667 4.69667M7.55333 12.9467C6.97072 12.3639 6.574 11.6215 6.41331 10.8132C6.25263 10.005 6.33521 9.1673 6.65061 8.40601C6.966 7.64471 7.50006 6.99403 8.18524 6.53624C8.87042 6.07845 9.67596 5.83411 10.5 5.83411C11.324 5.83411 12.1296 6.07845 12.8148 6.53624C13.4999 6.99403 14.034 7.64471 14.3494 8.40601C14.6648 9.1673 14.7474 10.005 14.5867 10.8132C14.426 11.6215 14.0293 12.3639 13.4467 12.9467L12.99 13.4025C12.7289 13.6636 12.5218 13.9736 12.3806 14.3148C12.2393 14.6559 12.1666 15.0216 12.1667 15.3908V15.8333C12.1667 16.2754 11.9911 16.6993 11.6785 17.0118C11.366 17.3244 10.942 17.5 10.5 17.5C10.058 17.5 9.63405 17.3244 9.32149 17.0118C9.00893 16.6993 8.83333 16.2754 8.83333 15.8333V15.3908C8.83333 14.645 8.53667 13.9292 8.01 13.4025L7.55333 12.9467Z" stroke="#2F3A4C" stroke-width="1.5" stroke-linecap="round" stroke-linejoin="round"/>
</svg>
