<svg width="21" height="20" viewBox="0 0 21 20" fill="none" xmlns="http://www.w3.org/2000/svg">
<path d="M18 10C18 11.9891 17.2098 13.8968 15.8033 15.3033C14.3968 16.7098 12.4891 17.5 10.5 17.5M18 10C18 8.01088 17.2098 6.10322 15.8033 4.6967C14.3968 3.29018 12.4891 2.5 10.5 2.5M18 10H3M10.5 17.5C8.51088 17.5 6.60322 16.7098 5.1967 15.3033C3.79018 13.8968 3 11.9891 3 10M10.5 17.5C11.8808 17.5 13 14.1417 13 10C13 5.85833 11.8808 2.5 10.5 2.5M10.5 17.5C9.11917 17.5 8 14.1417 8 10C8 5.85833 9.11917 2.5 10.5 2.5M10.5 2.5C8.51088 2.5 6.60322 3.29018 5.1967 4.6967C3.79018 6.10322 3 8.01088 3 10" stroke="#2F3A4C" stroke-width="1.5" stroke-linecap="round" stroke-linejoin="round"/>
</svg>
