<svg width="21" height="20" viewBox="0 0 21 20" fill="none" xmlns="http://www.w3.org/2000/svg">
<path d="M18.2748 6.60007C17.9332 6.60007 17.6498 6.31673 17.6498 5.97507V4.4584C17.6498 3.85007 17.1582 3.3584 16.5498 3.3584H4.44985C3.84152 3.3584 3.34985 3.85007 3.34985 4.4584V5.98339C3.34985 6.32506 3.06652 6.60839 2.72485 6.60839C2.38319 6.60839 2.09985 6.32507 2.09985 5.97507V4.4584C2.09985 3.1584 3.15819 2.1084 4.44985 2.1084H16.5498C17.8498 2.1084 18.8998 3.16673 18.8998 4.4584V5.98339C18.8998 6.32506 18.6248 6.60007 18.2748 6.60007Z" fill="#292D32"/>
<path d="M10.5 17.8915C10.1583 17.8915 9.875 17.6082 9.875 17.2665V3.4248C9.875 3.08314 10.1583 2.7998 10.5 2.7998C10.8417 2.7998 11.125 3.08314 11.125 3.4248V17.2665C11.125 17.6165 10.8417 17.8915 10.5 17.8915Z" fill="#292D32"/>
<path d="M13.7837 17.8916H7.21704C6.87537 17.8916 6.59204 17.6083 6.59204 17.2666C6.59204 16.9249 6.87537 16.6416 7.21704 16.6416H13.7837C14.1253 16.6416 14.4087 16.9249 14.4087 17.2666C14.4087 17.6083 14.1253 17.8916 13.7837 17.8916Z" fill="#292D32"/>
</svg>
