<svg width="32" height="32" viewBox="0 0 32 32" fill="none" xmlns="http://www.w3.org/2000/svg">
<path d="M0 16C0 7.16344 7.16344 0 16 0C24.8366 0 32 7.16344 32 16C32 24.8366 24.8366 32 16 32C7.16344 32 0 24.8366 0 16Z" fill="#C5D5F5"/>
<path d="M10.7969 21L7.40625 12.1406H7.35156C7.41536 12.8424 7.44727 13.6764 7.44727 14.6426V21H6.37402V11.0059H8.12402L11.2891 19.25H11.3438L14.5361 11.0059H16.2725V21H15.1104V14.5605C15.1104 13.8223 15.1423 13.0202 15.2061 12.1543H15.1514L11.7334 21H10.7969ZM25.5527 21L24.3086 17.8213H20.3027L19.0723 21H17.8965L21.8477 10.9648H22.8252L26.7559 21H25.5527ZM23.9463 16.7754L22.7842 13.6787C22.6338 13.2868 22.4788 12.806 22.3193 12.2363C22.2191 12.6738 22.0755 13.1546 21.8887 13.6787L20.7129 16.7754H23.9463Z" fill="#161B23"/>
</svg>
